<?xml version="1.0" encoding="UTF-8"?>
<svg width="18" height="18" viewBox="0 0 18 18" fill="none" xmlns="http://www.w3.org/2000/svg">
  <path d="M18 9C18 4.02944 13.9706 0 9 0C4.02944 0 0 4.02944 0 9C0 13.4921 3.29344 17.2155 7.59375 17.8907V11.6016H5.30859V9H7.59375V7.01719C7.59375 4.76156 8.93672 3.51562 10.9932 3.51562C11.9776 3.51562 13.0078 3.69141 13.0078 3.69141V5.90625H11.873C10.755 5.90625 10.4062 6.60006 10.4062 7.3125V9H12.9023L12.5033 11.6016H10.4062V17.8907C14.7066 17.2155 18 13.4921 18 9Z" fill="#1877F2"/>
  <path d="M12.5033 11.6016L12.9023 9H10.4062V7.3125C10.4062 6.60006 10.755 5.90625 11.873 5.90625H13.0078V3.69141C13.0078 3.69141 11.9776 3.51562 10.9932 3.51562C8.93672 3.51562 7.59375 4.76156 7.59375 7.01719V9H5.30859V11.6016H7.59375V17.8907C8.05892 17.9639 8.52952 18.0004 9 18C9.47048 18.0004 9.94108 17.9639 10.4062 17.8907V11.6016H12.5033Z" fill="white"/>
</svg>
